<svg width="364" height="98" viewBox="0 0 364 98" fill="none" xmlns="http://www.w3.org/2000/svg">
<g clip-path="url(#clip0_9_160)">
<path fill-rule="evenodd" clip-rule="evenodd" d="M46.574 22.26C55.1471 22.26 62.1223 29.2931 62.1223 37.9374C62.1223 46.5817 55.1471 53.6148 46.574 53.6148H37.8322C34.5077 53.6148 31.8046 56.3426 31.8046 59.6947C31.8046 63.0468 34.5077 65.7723 37.8322 65.7723H85.7643V30.5574C85.7643 26.2879 83.5051 22.345 79.841 20.2103L48.6246 2.04005C44.9606 -0.0947293 40.4443 -0.0947293 36.7781 2.04005L5.56385 20.2103C4.59846 20.7742 3.74626 21.4723 2.9917 22.26H46.574Z" fill="#25AB6C"/>
<path fill-rule="evenodd" clip-rule="evenodd" d="M38.2729 76.2252C29.6821 76.2252 22.6924 69.173 22.6924 60.5054C22.6924 51.8377 29.6821 44.7856 38.2729 44.7856H47.0327C50.3641 44.7856 53.0728 42.0504 53.0728 38.6893C53.0728 35.3281 50.3641 32.5952 47.0327 32.5952H0V67.7303C0 72.0092 2.2639 75.9649 5.93552 78.1032L37.2165 96.3248C40.8882 98.4631 45.4137 98.4631 49.0876 96.3248L80.3664 78.1032C81.2626 77.5827 82.0587 76.941 82.7726 76.2252H38.2729Z" fill="#25AB6C"/>
<path fill-rule="evenodd" clip-rule="evenodd" d="M153.079 77.512H138.2L134.499 61.2837C133.746 58.1624 132.462 57.2255 129.592 57.2255H123.171V77.512H109.2V23.6767C115.844 22.9763 120.376 22.8975 130.27 22.8975C144.847 22.8975 151.04 26.6426 151.04 39.1258C151.04 46.0688 148.548 51.2959 140.768 52.1539V52.6223C143.563 53.0908 147.567 54.7302 148.775 60.8941L153.079 77.512ZM136.766 40.0626C136.766 34.9122 135.33 33.5857 129.968 33.5857H123.171V46.5373H129.968C135.33 46.5373 136.766 45.2108 136.766 40.0626Z" fill="#0B1215"/>
<path fill-rule="evenodd" clip-rule="evenodd" d="M189.282 64.6518H173.222L170.117 77.5118H155.573L169.891 27.2485C170.421 24.897 172.391 23.4077 174.662 23.4077H187.844C190.115 23.4077 192.086 24.897 192.691 27.2485L206.931 77.5118H192.387L189.282 64.6518ZM186.707 53.9871L183.299 40.1086C182.92 38.3047 182.465 36.2678 182.312 34.4639H180.267C179.966 36.2678 179.587 38.3047 179.208 40.1086L175.799 53.9871H186.707Z" fill="#0B1215"/>
<path fill-rule="evenodd" clip-rule="evenodd" d="M245.129 64.6518H229.07L225.963 77.5118H211.419L225.737 27.2485C226.267 24.897 228.237 23.4077 230.509 23.4077H243.69C245.962 23.4077 247.932 24.897 248.537 27.2485L262.778 77.5118H248.233L245.129 64.6518ZM242.553 53.9871L239.145 40.1086C238.766 38.3047 238.312 36.2678 238.159 34.4639H236.113C235.812 36.2678 235.433 38.3047 235.054 40.1086L231.646 53.9871H242.553Z" fill="#0B1215"/>
<path fill-rule="evenodd" clip-rule="evenodd" d="M310.148 23.4077V77.5118H295.95V54.1456H280.391V77.5118H266.269V23.4077H280.391V43.4017H295.95V23.4077H310.148Z" fill="#0B1215"/>
<path fill-rule="evenodd" clip-rule="evenodd" d="M364 50.2046C364 72.3783 357.857 78.5327 340.776 78.5327C323.694 78.5327 317.627 72.3783 317.627 50.2046C317.627 28.0309 323.694 21.8765 340.776 21.8765C357.857 21.8765 364 28.0309 364 50.2046ZM332.384 50.2046C332.384 63.6204 334.184 67.1714 340.776 67.1714C347.369 67.1714 349.166 63.6204 349.166 50.2046C349.166 36.791 347.369 33.2378 340.776 33.2378C334.184 33.2378 332.384 36.791 332.384 50.2046Z" fill="#0B1215"/>
</g>
<defs>
<clipPath id="clip0_9_160">
<rect width="364" height="98" fill="white"/>
</clipPath>
</defs>
</svg>
