<svg width="584" height="127" viewBox="0 0 584 127" fill="none" xmlns="http://www.w3.org/2000/svg">
<path d="M57.5999 100.608C55.2959 100.608 53.5039 99.84 52.2239 98.304C51.0292 96.6826 50.2186 94.6346 49.7919 92.16C49.3652 89.6 49.1519 86.912 49.1519 84.096L49.7919 83.584C48.9386 87.2533 47.2746 90.4106 44.7999 93.056C42.3252 95.7013 39.4666 97.7493 36.2239 99.2C32.9812 100.565 29.7386 101.248 26.4959 101.248C22.1439 101.248 18.1759 100.224 14.5919 98.176C11.0079 96.128 8.23456 92.9706 6.2719 88.704C4.30923 84.1813 2.77323 78.5066 1.66389 71.68C0.554562 64.768 -0.000104904 57.6853 -0.000104904 50.432C-0.000104904 46.5066 0.170562 42.88 0.511895 39.552C0.853229 36.224 1.4079 33.4933 2.17589 31.36C2.85856 29.1413 3.88256 27.52 5.2479 26.496C6.61323 25.3866 8.36256 24.832 10.4959 24.832C12.9706 24.832 14.8906 25.8133 16.2559 27.776C17.7066 29.6533 18.6026 32.2986 18.9439 35.712C19.2852 38.528 19.4986 42.0266 19.5839 46.208C19.7546 50.304 19.8826 54.4426 19.9679 58.624C20.1386 62.72 20.3519 66.176 20.6079 68.992C21.1199 74.112 22.4426 77.9093 24.5759 80.384C26.7092 82.7733 29.3119 83.968 32.3839 83.968C36.9066 83.968 40.3626 82.2613 42.7519 78.848C45.1412 75.4346 46.3359 70.656 46.3359 64.512C46.3359 61.44 46.1652 57.984 45.8239 54.144C45.4826 50.2186 45.0986 46.4213 44.6719 42.752C44.3306 39.0826 44.1599 36.0533 44.1599 33.664C44.1599 29.6533 44.8426 26.7946 46.2079 25.088C47.5732 23.296 49.4506 22.4 51.8399 22.4C53.8879 22.4 55.5946 22.9546 56.9599 24.064C58.4106 25.1733 59.5626 26.7093 60.4159 28.672C61.6106 31.232 62.6346 34.7306 63.4879 39.168C64.3412 43.6053 65.0239 48.64 65.5359 54.272C66.0479 59.904 66.3039 65.8346 66.3039 72.064C66.3039 81.6213 65.6639 88.7893 64.3839 93.568C63.1039 98.2613 60.8426 100.608 57.5999 100.608ZM85.4589 102.528C83.0696 102.528 81.0216 101.675 79.3149 99.968C77.6082 98.176 76.7549 95.9573 76.7549 93.312C76.7549 90.24 77.9922 86.912 80.4669 83.328C82.9416 79.6586 86.5256 76.0746 91.2189 72.576C95.9976 69.0773 101.672 66.0053 108.243 63.36V62.848C97.4056 58.24 89.4269 53.0773 84.3069 47.36C79.2722 41.6426 76.7549 36.3946 76.7549 31.616C76.7549 29.6533 77.1816 27.9893 78.0349 26.624C78.9736 25.2586 80.1682 24.192 81.6189 23.424C83.1549 22.656 84.7336 22.272 86.3549 22.272C89.8536 22.272 93.2242 23.5946 96.4669 26.24C99.7949 28.8 103.038 32.512 106.195 37.376C109.352 42.1546 112.424 47.9146 115.411 54.656H115.923C120.275 42.9653 124.798 34.4746 129.491 29.184C134.27 23.808 139.219 21.12 144.339 21.12C146.814 21.12 148.734 21.9306 150.099 23.552C151.464 25.088 152.147 27.0506 152.147 29.44C152.147 35.072 149.715 40.576 144.851 45.952C139.987 51.328 132.606 56.4053 122.707 61.184V61.824C131.838 66.8586 138.622 72.1066 143.059 77.568C147.582 82.944 149.843 87.68 149.843 91.776C149.843 94.336 149.075 96.384 147.539 97.92C146.088 99.456 144.339 100.224 142.291 100.224C138.707 100.224 135.379 98.9013 132.307 96.256C129.235 93.6106 126.334 89.9413 123.603 85.248C120.958 80.4693 118.44 75.008 116.051 68.864H115.539C112.382 76.6293 109.096 83.0293 105.683 88.064C102.355 93.0133 98.9842 96.6826 95.5709 99.072C92.1576 101.376 88.7869 102.528 85.4589 102.528ZM172.228 102.656C170.351 102.656 168.815 102.016 167.62 100.736C166.511 99.456 165.615 97.6213 164.932 95.232C164.249 91.7333 163.652 87.168 163.14 81.536C162.713 75.8186 162.5 69.7173 162.5 63.232C162.5 59.5626 162.585 55.424 162.756 50.816C162.927 46.208 163.14 41.5573 163.396 36.864C163.737 32.0853 164.079 27.648 164.42 23.552C164.847 19.456 165.273 16.128 165.7 13.568C166.383 9.81331 167.364 6.86931 168.644 4.73597C170.009 2.51731 172.143 1.40797 175.044 1.40797C178.031 1.40797 180.207 2.55997 181.572 4.86398C182.937 7.08264 183.62 9.85597 183.62 13.184C183.62 16.9386 183.321 21.376 182.724 26.496C182.212 31.616 181.401 36.8213 180.292 42.112L177.732 45.184C178.671 41.6 180.207 38.3146 182.34 35.328C184.473 32.3413 187.161 29.9946 190.404 28.288C193.647 26.496 197.401 25.6 201.668 25.6C210.031 25.6 216.687 28.5866 221.636 34.56C226.671 40.448 229.188 49.664 229.188 62.208C229.188 70.9973 227.865 78.336 225.22 84.224C222.66 90.112 219.119 94.5493 214.596 97.536C210.159 100.437 205.081 101.888 199.364 101.888C193.988 101.888 189.337 100.309 185.412 97.152C181.572 93.9946 179.097 89.4293 177.988 83.456L179.78 84.864C179.439 91.008 178.585 95.5306 177.22 98.432C175.94 101.248 174.276 102.656 172.228 102.656ZM195.652 87.04C199.919 87.04 203.673 85.12 206.916 81.28C210.159 77.44 211.78 71.424 211.78 63.232C211.78 56.4053 210.5 50.8586 207.94 46.592C205.465 42.3253 201.284 40.192 195.396 40.192C190.617 40.192 186.777 42.112 183.876 45.952C180.975 49.7066 179.524 55.424 179.524 63.104C179.524 70.1013 180.975 75.8613 183.876 80.384C186.777 84.8213 190.703 87.04 195.652 87.04ZM253.547 126.848C248.939 126.848 246.635 124.373 246.635 119.424C246.635 116.693 247.574 113.451 249.451 109.696C251.328 105.941 254.059 101.888 257.643 97.536C261.312 93.184 265.75 88.7466 270.955 84.224L270.827 85.248C259.478 73.984 250.859 64.0853 244.971 55.552C239.168 47.0186 236.267 39.6373 236.267 33.408C236.267 30.336 237.035 27.9466 238.571 26.24C240.192 24.5333 242.326 23.68 244.971 23.68C250.603 23.68 256.192 27.776 261.739 35.968C267.286 44.16 272.534 56.6186 277.483 73.344H277.995C281.238 55.7653 284.694 42.88 288.363 34.688C292.032 26.4106 296.384 22.272 301.419 22.272C303.808 22.272 305.558 23.1253 306.667 24.832C307.862 26.4533 308.459 28.7573 308.459 31.744C308.459 34.2186 307.904 37.504 306.795 41.6C305.771 45.6106 304.278 50.176 302.315 55.296C300.438 60.3306 298.219 65.5786 295.659 71.04C293.184 76.5013 290.454 81.8773 287.467 87.168C279.872 100.907 273.387 110.933 268.011 117.248C262.635 123.648 257.814 126.848 253.547 126.848ZM375.436 102.656C372.535 102.656 370.529 101.547 369.42 99.328C368.396 97.024 367.799 93.3973 367.628 88.448L368.908 89.088C364.129 98.3893 355.084 103.04 341.772 103.04C335.713 103.04 330.679 101.973 326.668 99.84C322.657 97.6213 319.671 94.72 317.708 91.136C315.831 87.4666 314.892 83.4986 314.892 79.232C314.892 71.8933 317.452 66.0906 322.572 61.824C327.692 57.472 334.476 55.296 342.924 55.296C348.471 55.296 353.292 56.1066 357.388 57.728C361.484 59.3493 364.983 61.6106 367.884 64.512L365.708 64.256C365.111 55.6373 363.233 49.4933 360.076 45.824C357.004 42.0693 352.609 40.192 346.892 40.192C343.564 40.192 340.492 40.704 337.676 41.728C334.86 42.752 332.257 43.8186 329.868 44.928C327.564 45.952 325.388 46.464 323.34 46.464C321.292 46.464 319.671 45.7813 318.476 44.416C317.367 43.0506 316.812 41.3013 316.812 39.168C316.812 36.096 318.263 33.1946 321.164 30.464C324.151 27.7333 328.076 25.5146 332.94 23.808C337.804 22.1013 343.095 21.248 348.812 21.248C355.724 21.248 361.655 22.912 366.604 26.24C371.553 29.568 375.308 34.432 377.868 40.832C380.087 46.2933 381.665 52.3946 382.604 59.136C383.543 65.8773 384.012 73.088 384.012 80.768C384.012 86.5706 383.713 91.0506 383.116 94.208C382.519 97.3653 381.58 99.584 380.3 100.864C379.105 102.059 377.484 102.656 375.436 102.656ZM347.148 88.32C349.964 88.32 352.823 87.936 355.724 87.168C358.625 86.3146 361.057 85.0773 363.02 83.456C364.983 81.8346 365.964 79.8293 365.964 77.44C365.964 75.392 365.111 73.728 363.404 72.448C361.783 71.0826 359.607 70.0586 356.876 69.376C354.231 68.6933 351.372 68.352 348.3 68.352C343.095 68.352 339.127 69.248 336.396 71.04C333.751 72.832 332.428 75.2213 332.428 78.208C332.428 81.4506 333.665 83.968 336.14 85.76C338.7 87.4666 342.369 88.32 347.148 88.32ZM409.353 102.656C407.476 102.656 405.94 102.016 404.745 100.736C403.636 99.456 402.74 97.6213 402.057 95.232C401.374 91.7333 400.777 87.168 400.265 81.536C399.838 75.8186 399.625 69.7173 399.625 63.232C399.625 59.5626 399.71 55.424 399.881 50.816C400.052 46.208 400.265 41.5573 400.521 36.864C400.862 32.0853 401.204 27.648 401.545 23.552C401.972 19.456 402.398 16.128 402.825 13.568C403.508 9.81331 404.489 6.86931 405.769 4.73597C407.134 2.51731 409.268 1.40797 412.169 1.40797C415.156 1.40797 417.332 2.55997 418.697 4.86398C420.062 7.08264 420.745 9.85597 420.745 13.184C420.745 16.9386 420.446 21.376 419.849 26.496C419.337 31.616 418.526 36.8213 417.417 42.112L414.857 45.184C415.796 41.6 417.332 38.3146 419.465 35.328C421.598 32.3413 424.286 29.9946 427.529 28.288C430.772 26.496 434.526 25.6 438.793 25.6C447.156 25.6 453.812 28.5866 458.761 34.56C463.796 40.448 466.313 49.664 466.313 62.208C466.313 70.9973 464.99 78.336 462.345 84.224C459.785 90.112 456.244 94.5493 451.721 97.536C447.284 100.437 442.206 101.888 436.489 101.888C431.113 101.888 426.462 100.309 422.537 97.152C418.697 93.9946 416.222 89.4293 415.113 83.456L416.905 84.864C416.564 91.008 415.71 95.5306 414.345 98.432C413.065 101.248 411.401 102.656 409.353 102.656ZM432.777 87.04C437.044 87.04 440.798 85.12 444.041 81.28C447.284 77.44 448.905 71.424 448.905 63.232C448.905 56.4053 447.625 50.8586 445.065 46.592C442.59 42.3253 438.409 40.192 432.521 40.192C427.742 40.192 423.902 42.112 421.001 45.952C418.1 49.7066 416.649 55.424 416.649 63.104C416.649 70.1013 418.1 75.8613 421.001 80.384C423.902 84.8213 427.828 87.04 432.777 87.04ZM492.434 -3.05176e-05C495.165 -3.05176e-05 497.042 1.06664 498.066 3.19997C499.175 5.33331 499.73 8.5333 499.73 12.8C499.73 16.4693 499.517 21.0773 499.09 26.624C498.663 32.1706 498.109 37.504 497.426 42.624H496.658C499.474 37.3333 503.101 33.0666 507.538 29.824C511.975 26.5813 516.669 24.96 521.618 24.96C525.97 24.96 529.853 26.0266 533.266 28.16C536.679 30.208 539.453 33.4506 541.586 37.888C543.549 41.8986 544.999 46.6773 545.938 52.224C546.877 57.6853 547.346 62.8906 547.346 67.84C547.346 75.776 546.791 82.0906 545.682 86.784C544.658 91.4773 543.207 94.8906 541.33 97.024C539.453 99.072 537.234 100.096 534.674 100.096C529.298 100.096 526.61 95.7013 526.61 86.912C526.61 82.6453 526.823 78.2506 527.25 73.728C527.762 69.2053 528.018 65.0666 528.018 61.312C528.018 54.912 526.994 50.1333 524.946 46.976C522.983 43.7333 520.125 42.112 516.37 42.112C511.677 42.112 507.879 44.2026 504.978 48.384C502.077 52.5653 500.626 58.3253 500.626 65.664C500.626 69.504 500.967 73.728 501.65 78.336C502.333 82.8586 502.674 86.9973 502.674 90.752C502.674 94.9333 501.863 97.9626 500.242 99.84C498.706 101.632 496.701 102.528 494.226 102.528C492.349 102.528 490.685 102.144 489.234 101.376C487.869 100.693 486.674 99.2853 485.65 97.152C484.711 94.9333 483.901 91.648 483.218 87.296C482.706 83.968 482.194 80.0853 481.682 75.648C481.17 71.2106 480.743 66.56 480.402 61.696C480.061 56.832 479.762 52.096 479.506 47.488C479.335 42.7946 479.25 38.528 479.25 34.688C479.25 22.5706 480.402 13.7813 482.706 8.31997C485.01 2.7733 488.253 -3.05176e-05 492.434 -3.05176e-05ZM574.264 3.19997C577.677 3.19997 580.109 4.13864 581.56 6.01597C583.096 7.8933 583.864 10.0693 583.864 12.544C583.864 15.616 582.925 18.0053 581.048 19.712C579.256 21.3333 576.696 22.144 573.368 22.144C570.125 22.144 567.693 21.248 566.072 19.456C564.451 17.5786 563.64 15.4026 563.64 12.928C563.64 9.68531 564.621 7.25331 566.584 5.63197C568.547 4.01064 571.107 3.19997 574.264 3.19997ZM575.032 31.744C577.763 31.744 579.896 34.304 581.432 39.424C583.053 44.544 583.864 52.6933 583.864 63.872C583.864 77.6106 582.883 87.5093 580.92 93.568C578.957 99.6266 575.971 102.656 571.96 102.656C568.888 102.656 566.627 100.437 565.176 96C563.725 91.4773 563 83.6266 563 72.448C563 58.7093 564.109 48.512 566.328 41.856C568.632 35.1146 571.533 31.744 575.032 31.744Z" fill="white"/>
</svg>
