<svg xmlns="http://www.w3.org/2000/svg" width="410" height="404" viewBox="0 0 410 404" fill="none">
  <path d="M399.641 59.5244L215.643 388.545C211.844 395.338 202.084 395.378 198.228 388.617L10.5817 59.5563C6.38087 52.1885 12.6712 43.2665 21.0361 44.7324L205.223 77.0147C206.398 77.2205 207.601 77.2185 208.776 77.0089L389.119 44.7578C397.453 43.2678 403.768 52.1301 399.641 59.5244Z" fill="url(#paint0_linear)"/>
  <path d="M292.965 1.5744L156.801 28.2552C154.563 28.6937 152.906 30.5903 152.771 32.8675L144.395 174.33C144.198 177.657 147.258 180.248 150.51 179.502L188.42 170.795C191.967 169.981 195.172 173.103 194.443 176.669L183.18 231.775C182.422 235.482 185.907 238.644 189.532 237.538L212.947 230.395C216.577 229.288 220.065 232.458 219.297 236.169L201.398 322.787C200.278 328.208 207.486 331.166 210.492 326.513L212.5 323.406L323.454 102.072C325.313 98.3643 322.108 94.137 318.036 94.9224L279.014 102.451C275.347 103.159 272.227 99.746 273.262 96.1583L298.731 7.86689C299.767 4.27314 296.636 0.855181 292.965 1.5744Z" fill="url(#paint1_linear)"/>
  <defs>
    <linearGradient id="paint0_linear" x1="6.00017" y1="32.9999" x2="235" y2="344" gradientUnits="userSpaceOnUse">
      <stop stop-color="#41D1FF"/>
      <stop offset="1" stop-color="#BD34FE"/>
    </linearGradient>
    <linearGradient id="paint1_linear" x1="194.651" y1="8.81818" x2="236.076" y2="292.989" gradientUnits="userSpaceOnUse">
      <stop stop-color="#FFEA83"/>
      <stop offset="0.0833333" stop-color="#FFDD35"/>
      <stop offset="1" stop-color="#FFA800"/>
    </linearGradient>
  </defs>
</svg>
